{
  "accessors": [
    {
      "bufferView": 1,
      "componentType": 5126,
      "count": 682,
      "max": [
        0.17532999813556671,
        0.17532999813556671,
        4.863959789276123
      ],
      "min": [
        -0.17532999813556671,
        -0.17532999813556671,
        -4.9132299423217773
      ],
      "type": "VEC3"
    },
    {
      "bufferView": 1,
      "byteOffset": 8184,
      "componentType": 5126,
      "count": 682,
      "max": [
        0.98078459501266479,
        0.98078459501266479,
        1
      ],
      "min": [
        -0.98078459501266479,
        -0.98078459501266479,
        -1
      ],
      "type": "VEC3"
    },
    {
      "bufferView": 0,
      "componentType": 5125,
      "count": 1044,
      "max": [
        681
      ],
      "min": [
        0
      ],
      "type": "SCALAR"
    }
  ],
  "asset": {
    "extras": {
      "author": "Jiří Kuba (https://sketchfab.com/kuba.jirka)",
      "license": "CC-BY-4.0 (http://creativecommons.org/licenses/by/4.0/)",
      "source": "https://sketchfab.com/models/0cab2eab9d3a45aba4f68f72bfa5ae1e",
      "title": "Lowpoly drumstick"
    },
    "generator": "Sketchfab-3.18.7",
    "version": "2.0"
  },
  "bufferViews": [
    {
      "buffer": 0,
      "byteLength": 4176,
      "byteOffset": 0,
      "name": "floatBufferViews",
      "target": 34963
    },
    {
      "buffer": 0,
      "byteLength": 16368,
      "byteOffset": 4176,
      "byteStride": 12,
      "name": "floatBufferViews",
      "target": 34962
    }
  ],
  "buffers": [
    {
      "byteLength": 20544,
      "uri": "scene.bin"
    }
  ],
  "materials": [
    {
      "doubleSided": true,
      "emissiveFactor": [
        0,
        0,
        0
      ],
      "name": "DrumstickMaterial",
      "pbrMetallicRoughness": {
        "baseColorFactor": [
          0.73046094179999999,
          0.57758063079999999,
          0.30054378510000002,
          1
        ],
        "metallicFactor": 0.37366615850000001,
        "roughnessFactor": 0.38243140239999995
      }
    }
  ],
  "meshes": [
    {
      "name": "Drumstick_0",
      "primitives": [
        {
          "attributes": {
            "NORMAL": 1,
            "POSITION": 0
          },
          "indices": 2,
          "material": 0,
          "mode": 4
        }
      ]
    }
  ],
  "nodes": [
    {
      "children": [
        1
      ],
      "name": "RootNode (gltf orientation matrix)",
      "rotation": [
        -0.70710678118654746,
        -0,
        -0,
        0.70710678118654757
      ]
    },
    {
      "children": [
        2
      ],
      "name": "RootNode (model correction matrix)"
    },
    {
      "children": [
        3
      ],
      "name": "Root"
    },
    {
      "children": [
        4
      ],
      "name": "Drumstick"
    },
    {
      "mesh": 0,
      "name": "Drumstick_0"
    }
  ],
  "scene": 0,
  "scenes": [
    {
      "name": "OSG_Scene",
      "nodes": [
        0
      ]
    }
  ]
}

